<svg width="201" height="34" viewBox="0 0 201 34" fill="none" xmlns="http://www.w3.org/2000/svg">
<path d="M0.647905 30.3378C0.282174 30.5322 0.143328 30.9864 0.337785 31.3521C0.532241 31.7178 0.986364 31.8567 1.3521 31.6622L0.647905 30.3378ZM200.241 31.7103C200.633 31.5774 200.843 31.1516 200.71 30.7593L198.544 24.3665C198.411 23.9742 197.985 23.7639 197.593 23.8969C197.2 24.0298 196.99 24.4556 197.123 24.8479L199.049 30.5304L193.366 32.4564C192.974 32.5893 192.764 33.0151 192.897 33.4074C193.03 33.7997 193.456 34.01 193.848 33.877L200.241 31.7103ZM3.1585 30.7066C3.52504 30.5137 3.6658 30.0602 3.47288 29.6936C3.27997 29.3271 2.82643 29.1863 2.45989 29.3792L3.1585 30.7066ZM6.04697 27.511C5.67876 27.7007 5.53406 28.153 5.72377 28.5212C5.91349 28.8894 6.36578 29.0341 6.73399 28.8444L6.04697 27.511ZM10.3188 27.0182C10.6887 26.8319 10.8376 26.381 10.6513 26.011C10.4651 25.6411 10.0141 25.4922 9.64418 25.6785L10.3188 27.0182ZM13.2682 23.8759C12.8964 24.0585 12.743 24.508 12.9256 24.8798C13.1082 25.2515 13.5577 25.4049 13.9295 25.2223L13.2682 23.8759ZM17.5497 23.4678C17.9234 23.2891 18.0815 22.8414 17.9029 22.4676C17.7242 22.0939 17.2764 21.9358 16.9027 22.1145L17.5497 23.4678ZM20.5621 20.3902C20.1864 20.5646 20.0232 21.0106 20.1976 21.3863C20.372 21.762 20.8179 21.9252 21.1937 21.7508L20.5621 20.3902ZM24.8568 20.0769C25.2346 19.907 25.4032 19.4631 25.2333 19.0853C25.0635 18.7075 24.6195 18.5389 24.2418 18.7088L24.8568 20.0769ZM27.9347 17.0767C27.5547 17.2417 27.3804 17.6834 27.5454 18.0633C27.7104 18.4433 28.1521 18.6176 28.5321 18.4526L27.9347 17.0767ZM32.2445 16.8707C32.6267 16.711 32.8071 16.2718 32.6474 15.8896C32.4877 15.5074 32.0484 15.327 31.6662 15.4867L32.2445 16.8707ZM35.3909 13.9618C35.0064 14.1159 34.8197 14.5525 34.9738 14.937C35.1279 15.3215 35.5645 15.5083 35.9489 15.3542L35.3909 13.9618ZM39.7156 13.8785C40.1024 13.7305 40.296 13.2968 40.148 12.91C40 12.5231 39.5664 12.3295 39.1795 12.4775L39.7156 13.8785ZM42.9538 11.0688C42.5645 11.2104 42.3637 11.6407 42.5053 12.03C42.6469 12.4193 43.0772 12.6201 43.4665 12.4785L42.9538 11.0688ZM47.2711 11.1325C47.6628 10.9979 47.8712 10.5712 47.7366 10.1795C47.6019 9.78777 47.1753 9.57935 46.7835 9.71398L47.2711 11.1325ZM50.6236 8.43412C50.2294 8.56135 50.013 8.98404 50.1403 9.37823C50.2675 9.77242 50.6902 9.98884 51.0844 9.86161L50.6236 8.43412ZM54.9104 8.66827C55.3071 8.54892 55.5319 8.13062 55.4125 7.73397C55.2932 7.33733 54.8749 7.11254 54.4782 7.23189L54.9104 8.66827ZM58.3835 6.10135C57.9844 6.21227 57.7508 6.62571 57.8617 7.0248C57.9727 7.42388 58.3861 7.65749 58.7852 7.54657L58.3835 6.10135ZM62.6598 6.51555C63.0612 6.41353 63.3039 6.00538 63.2019 5.60393C63.0999 5.20248 62.6918 4.95974 62.2903 5.06176L62.6598 6.51555ZM66.2287 4.10943C65.825 4.20203 65.5728 4.60438 65.6654 5.00811C65.758 5.41184 66.1603 5.66407 66.5641 5.57147L66.2287 4.10943ZM70.4963 4.71994C70.9022 4.6373 71.1643 4.24126 71.0816 3.83538C70.999 3.42949 70.6029 3.16746 70.197 3.25011L70.4963 4.71994ZM74.1719 2.49309C73.7641 2.56535 73.492 2.95457 73.5643 3.36243C73.6365 3.77029 74.0257 4.04235 74.4336 3.97009L74.1719 2.49309ZM78.396 3.32194C78.8056 3.26054 79.0879 2.87869 79.0265 2.46905C78.9651 2.05942 78.5833 1.77711 78.1737 1.83851L78.396 3.32194ZM82.1968 1.29158C81.7857 1.34171 81.493 1.71567 81.5431 2.12684C81.5932 2.53801 81.9672 2.83069 82.3784 2.78056L82.1968 1.29158ZM86.3651 2.35114C86.7775 2.3126 87.0806 1.94703 87.042 1.53461C87.0035 1.1222 86.6379 0.819108 86.2255 0.857646L86.3651 2.35114ZM90.2665 0.538356C89.8532 0.56503 89.5397 0.921743 89.5664 1.3351C89.593 1.74845 89.9498 2.06192 90.3631 2.03524L90.2665 0.538356ZM94.3747 1.83499C94.7886 1.82039 95.1124 1.47297 95.0977 1.05902C95.0831 0.645061 94.7357 0.321321 94.3218 0.335924L94.3747 1.83499ZM98.3763 0.252411C97.9621 0.254859 97.6283 0.592624 97.6307 1.00683C97.6332 1.42104 97.9709 1.75483 98.3851 1.75238L98.3763 0.252411ZM102.396 1.78758C102.811 1.79729 103.154 1.46947 103.164 1.05537C103.174 0.641272 102.846 0.297706 102.432 0.287997L102.396 1.78758ZM106.486 0.442333C106.072 0.420554 105.719 0.73822 105.697 1.15186C105.676 1.5655 105.993 1.91848 106.407 1.94026L106.486 0.442333ZM110.41 2.2089C110.822 2.24255 111.184 1.93516 111.218 1.52231C111.252 1.10947 110.944 0.74751 110.532 0.713855L110.41 2.2089ZM114.57 1.10059C114.158 1.05533 113.788 1.35241 113.742 1.76414C113.697 2.17587 113.994 2.54634 114.406 2.59161L114.57 1.10059ZM118.391 3.08535C118.802 3.14187 119.18 2.85504 119.237 2.4447C119.293 2.03436 119.006 1.6559 118.596 1.59938L118.391 3.08535ZM122.6 2.20528C122.192 2.13794 121.806 2.41467 121.738 2.82337C121.671 3.23207 121.948 3.61798 122.356 3.68532L122.6 2.20528ZM126.311 4.38896C126.718 4.46666 127.111 4.19982 127.188 3.79296C127.266 3.3861 126.999 2.99329 126.592 2.91559L126.311 4.38896ZM130.571 3.72616C130.166 3.63859 129.767 3.8958 129.68 4.30065C129.592 4.7055 129.849 5.10469 130.254 5.19225L130.571 3.72616ZM134.161 6.08492C134.564 6.18177 134.969 5.93381 135.066 5.53107C135.163 5.12834 134.915 4.72335 134.512 4.6265L134.161 6.08492ZM138.44 5.61703C138.04 5.51143 137.63 5.75051 137.524 6.15103C137.418 6.55156 137.657 6.96186 138.058 7.06746L138.44 5.61703ZM141.946 8.13584C142.344 8.24966 142.759 8.01907 142.873 7.6208C142.987 7.22253 142.756 6.8074 142.358 6.69358L141.946 8.13584ZM146.227 7.8399C145.831 7.71847 145.411 7.94107 145.29 8.33708C145.168 8.73309 145.391 9.15257 145.787 9.274L146.227 7.8399ZM149.623 10.4885C150.017 10.617 150.44 10.402 150.569 10.0082C150.697 9.61444 150.482 9.19103 150.088 9.0625L149.623 10.4885ZM153.934 10.354C153.542 10.2189 153.115 10.4268 152.98 10.8184C152.845 11.2099 153.053 11.6369 153.445 11.772L153.934 10.354ZM157.224 13.1096C157.614 13.2508 158.044 13.0495 158.185 12.6601C158.326 12.2707 158.125 11.8406 157.736 11.6994L157.224 13.1096ZM161.539 13.1099C161.152 12.9631 160.719 13.1581 160.572 13.5455C160.425 13.9328 160.62 14.3658 161.008 14.5126L161.539 13.1099ZM164.756 15.9621C165.142 16.114 165.577 15.9248 165.729 15.5395C165.881 15.1541 165.692 14.7186 165.307 14.5666L164.756 15.9621ZM169.056 16.0719C168.673 15.9153 168.235 16.0992 168.078 16.4826C167.922 16.8661 168.105 17.3039 168.489 17.4605L169.056 16.0719ZM172.222 19.0107C172.604 19.1717 173.044 18.9928 173.205 18.6112C173.366 18.2295 173.187 17.7896 172.805 17.6286L172.222 19.0107ZM176.505 19.212C176.125 19.0471 175.683 19.2214 175.518 19.6014C175.353 19.9813 175.527 20.423 175.907 20.588L176.505 19.212ZM179.613 22.218C179.992 22.3866 180.435 22.2165 180.604 21.8382C180.772 21.4598 180.602 21.0164 180.224 20.8479L179.613 22.218ZM183.89 22.5007C183.513 22.3289 183.069 22.4951 182.897 22.872C182.725 23.2489 182.891 23.6937 183.268 23.8655L183.89 22.5007ZM186.938 25.5568C187.313 25.7316 187.759 25.569 187.934 25.1935C188.109 24.818 187.946 24.3719 187.571 24.197L186.938 25.5568ZM191.219 25.9125C190.845 25.7349 190.398 25.8943 190.22 26.2685C190.043 26.6427 190.202 27.09 190.576 27.2676L191.219 25.9125ZM194.215 29.0096C194.588 29.1897 195.037 29.0333 195.217 28.6603C195.397 28.2872 195.24 27.8389 194.867 27.6588L194.215 29.0096ZM198.498 29.4252C198.126 29.2429 197.677 29.3966 197.495 29.7685C197.312 30.1405 197.466 30.5898 197.838 30.7721L198.498 29.4252ZM1.3521 31.6622C1.95633 31.3409 2.55846 31.0224 3.1585 30.7066L2.45989 29.3792C1.85796 29.696 1.25398 30.0155 0.647905 30.3378L1.3521 31.6622ZM6.73399 28.8444C7.9372 28.2245 9.13205 27.6158 10.3188 27.0182L9.64418 25.6785C8.4532 26.2782 7.25422 26.889 6.04697 27.511L6.73399 28.8444ZM13.9295 25.2223C15.1446 24.6255 16.3512 24.0407 17.5497 23.4678L16.9027 22.1145C15.6994 22.6897 14.488 23.2769 13.2682 23.8759L13.9295 25.2223ZM21.1937 21.7508C22.4232 21.18 23.6441 20.6221 24.8568 20.0769L24.2418 18.7088C23.0234 19.2565 21.7969 19.817 20.5621 20.3902L21.1937 21.7508ZM28.5321 18.4526C29.778 17.9116 31.0154 17.3844 32.2445 16.8707L31.6662 15.4867C30.4305 16.0031 29.1868 16.533 27.9347 17.0767L28.5321 18.4526ZM35.9489 15.3542C37.2129 14.8476 38.4683 14.3557 39.7156 13.8785L39.1795 12.4775C37.9247 12.9576 36.662 13.4524 35.3909 13.9618L35.9489 15.3542ZM43.4665 12.4785C44.7429 12.0142 46.0109 11.5656 47.2711 11.1325L46.7835 9.71398C45.5148 10.15 44.2383 10.6016 42.9538 11.0688L43.4665 12.4785ZM51.0844 9.86161C52.3674 9.4475 53.6426 9.04976 54.9104 8.66827L54.4782 7.23189C53.2007 7.6163 51.916 8.01701 50.6236 8.43412L51.0844 9.86161ZM58.7852 7.54657C60.0839 7.18561 61.3753 6.84198 62.6598 6.51555L62.2903 5.06176C60.9948 5.39098 59.6928 5.73747 58.3835 6.10135L58.7852 7.54657ZM66.5641 5.57147C67.8813 5.26935 69.1919 4.98556 70.4963 4.71994L70.197 3.25011C68.8804 3.51821 67.5578 3.80461 66.2287 4.10943L66.5641 5.57147ZM74.4336 3.97009C75.7599 3.73511 77.0805 3.51912 78.396 3.32194L78.1737 1.83851C76.8449 2.03768 75.5112 2.25582 74.1719 2.49309L74.4336 3.97009ZM82.3784 2.78056C83.7116 2.61802 85.0403 2.47493 86.3651 2.35114L86.2255 0.857646C84.8866 0.982755 83.544 1.12735 82.1968 1.29158L82.3784 2.78056ZM90.3631 2.03524C91.7033 1.94876 93.0402 1.88206 94.3747 1.83499L94.3218 0.335924C92.9727 0.383513 91.6212 0.450935 90.2665 0.538356L90.3631 2.03524ZM98.3851 1.75238C99.7238 1.74447 101.061 1.75626 102.396 1.78758L102.432 0.287997C101.081 0.256331 99.7296 0.244411 98.3763 0.252411L98.3851 1.75238ZM106.407 1.94026C107.741 2.01051 109.075 2.10011 110.41 2.2089L110.532 0.713855C109.183 0.603907 107.835 0.513341 106.486 0.442333L106.407 1.94026ZM114.406 2.59161C115.733 2.73748 117.061 2.90211 118.391 3.08535L118.596 1.59938C117.252 1.4143 115.911 1.24798 114.57 1.10059L114.406 2.59161ZM122.356 3.68532C123.672 3.90202 124.99 4.13661 126.311 4.38896L126.592 2.91559C125.259 2.6609 123.928 2.42407 122.6 2.20528L122.356 3.68532ZM130.254 5.19225C131.552 5.47305 132.855 5.77065 134.161 6.08492L134.512 4.6265C133.194 4.3096 131.881 4.00944 130.571 3.72616L130.254 5.19225ZM138.058 7.06746C139.349 7.40775 140.644 7.76392 141.946 8.13584L142.358 6.69358C141.047 6.3189 139.741 5.96 138.44 5.61703L138.058 7.06746ZM145.787 9.274C147.06 9.66419 148.338 10.069 149.623 10.4885L150.088 9.0625C148.795 8.64038 147.508 8.2328 146.227 7.8399L145.787 9.274ZM153.445 11.772C154.698 12.2044 155.958 12.6504 157.224 13.1096L157.736 11.6994C156.462 11.2376 155.195 10.7891 153.934 10.354L153.445 11.772ZM161.008 14.5126C162.25 14.9833 163.499 15.4666 164.756 15.9621L165.307 14.5666C164.044 14.0687 162.788 13.5831 161.539 13.1099L161.008 14.5126ZM168.489 17.4605C169.726 17.9657 170.97 18.4825 172.222 19.0107L172.805 17.6286C171.548 17.0983 170.298 16.5793 169.056 16.0719L168.489 17.4605ZM175.907 20.588C177.135 21.1207 178.37 21.6641 179.613 22.218L180.224 20.8479C178.976 20.292 177.736 19.7467 176.505 19.212L175.907 20.588ZM183.268 23.8655C184.483 24.4196 185.706 24.9833 186.938 25.5568L187.571 24.197C186.336 23.6219 185.109 23.0565 183.89 22.5007L183.268 23.8655ZM190.576 27.2676C191.781 27.8394 192.994 28.4201 194.215 29.0096L194.867 27.6588C193.643 27.0678 192.427 26.4857 191.219 25.9125L190.576 27.2676ZM197.838 30.7721C198.446 31.0701 199.056 31.3702 199.668 31.6725L200.332 30.3275C199.719 30.0246 199.107 29.7239 198.498 29.4252L197.838 30.7721Z" fill="#6427FF"/>
</svg>
