<svg width="120" height="120" viewBox="0 0 120 120" fill="none" xmlns="http://www.w3.org/2000/svg">
<rect width="120" height="120" rx="60" fill="#F2EDFE"/>
<path fill-rule="evenodd" clip-rule="evenodd" d="M75.8511 62.6096H86.9196V57.5924C85.1882 57.0516 84.1133 55.3236 84.3889 53.531C84.6644 51.7384 86.2087 50.4119 88.0217 50.4119C89.8347 50.4119 91.379 51.7384 91.6545 53.531C91.9301 55.3236 90.8552 57.0516 89.1239 57.5924V63.6879C89.1239 64.2968 88.6341 64.7866 88.0252 64.7866H77.5758L75.8343 62.5994L75.8511 62.6096ZM58.0984 78.9977V91.1887C58.0984 91.7941 57.6086 92.2907 56.9998 92.2941H50.9043C50.3601 94.0289 48.6321 95.1106 46.8327 94.8351C45.0333 94.5595 43.7068 93.0118 43.7068 91.1921C43.7068 89.3723 45.0333 87.828 46.8327 87.5525C48.6321 87.2769 50.3601 88.3552 50.9043 90.09H55.9113V78.998L58.0984 78.9977ZM40.9345 64.8205H30.7202C30.1147 64.8205 29.6215 64.3307 29.6215 63.7253V57.6298C27.8902 57.0855 26.8119 55.361 27.0874 53.565C27.3629 51.7724 28.9037 50.4458 30.7202 50.4458C32.5367 50.4458 34.0775 51.7724 34.353 53.565C34.6285 55.361 33.5503 57.0855 31.8189 57.6298V62.6096H42.782L40.935 64.8308L40.9345 64.8205ZM62.8503 78.9977V93.2428H67.8573C68.4015 91.5081 70.1329 90.4298 71.9323 90.7053C73.7283 90.9774 75.0582 92.5251 75.0582 94.3449C75.0582 96.1647 73.7283 97.709 71.9323 97.9845C70.1329 98.26 68.4015 97.1818 67.8573 95.447H61.7618C61.1598 95.4402 60.67 94.9537 60.6666 94.3483V78.9973L62.8503 78.9977ZM34.2033 22.7095C33.1182 21.6244 31.4855 21.3013 30.0671 21.8898C28.6487 22.4782 27.7235 23.8626 27.7235 25.3967C27.7235 26.9307 28.6487 28.3152 30.0671 28.9036C31.4855 29.4919 33.1182 29.1689 34.2033 28.0838C34.9176 27.3695 35.3156 26.4034 35.3156 25.3966C35.3156 24.3898 34.9176 23.4204 34.2033 22.7095ZM42.6663 39.2544H20.4004C21.0025 33.7677 25.9312 29.7986 31.5368 29.7986C37.1459 29.7986 42.0402 33.7851 42.6837 39.2718L42.6663 39.2544ZM90.0385 22.7095C88.95 21.6244 87.3173 21.3013 85.9023 21.8898C84.4838 22.4782 83.5586 23.8626 83.5586 25.3967C83.5586 26.9307 84.4838 28.3152 85.9023 28.9036C87.3173 29.492 88.95 29.1689 90.0385 28.0838C90.7494 27.3695 91.1507 26.4034 91.1507 25.3966C91.1507 24.3898 90.7493 23.4204 90.0385 22.7095ZM76.2079 39.2544C76.8168 33.7677 81.7388 29.7986 87.3548 29.7986C92.9706 29.7986 97.9095 33.7851 98.5113 39.2718L76.2079 39.2544ZM33.1312 86.2766C32.3591 85.5079 31.1991 85.2766 30.1923 85.6949C29.1821 86.1133 28.5256 87.0964 28.5256 88.1882C28.5256 89.2801 29.1821 90.2631 30.1923 90.6816C31.1991 91.0999 32.3591 90.8686 33.1312 90.0999C34.1857 89.0421 34.1857 87.3344 33.1312 86.2766ZM22.8821 98.3996C23.5964 94.3553 27.1578 91.4435 31.26 91.5456C35.3622 91.4402 38.927 94.3553 39.6345 98.3996H22.8821ZM89.5857 86.294C88.8102 85.5253 87.6503 85.294 86.6435 85.7123C85.6367 86.1307 84.9801 87.1138 84.9801 88.2057C84.9801 89.2975 85.6366 90.2806 86.6435 90.699C87.6503 91.1173 88.8102 90.8895 89.5857 90.1173C90.6368 89.0595 90.6368 87.3518 89.5857 86.294ZM79.3001 98.3996C80.1232 94.4335 83.6165 91.5932 87.6644 91.5932C91.7121 91.5932 95.2055 94.4335 96.0287 98.3996H79.3001ZM86.6949 54.0847C86.6949 54.6833 87.0555 55.2208 87.6066 55.452C88.161 55.6799 88.7971 55.5541 89.2223 55.1289C89.6441 54.7071 89.7699 54.0711 89.542 53.5166C89.3141 52.9655 88.7733 52.6049 88.1746 52.6049C87.3583 52.6049 86.6949 53.2649 86.6949 54.0847ZM31.7809 55.1289C32.2061 54.7071 32.3353 54.0676 32.104 53.5132C31.8761 52.9621 31.3353 52.5981 30.7366 52.5981C30.138 52.5981 29.5971 52.9621 29.3693 53.5132C29.1414 54.0676 29.2672 54.7071 29.6924 55.1289C30.2706 55.7038 31.2027 55.7038 31.7809 55.1289ZM48.4825 90.1169C48.0607 89.6985 47.4315 89.5761 46.8804 89.804C46.3328 90.0319 45.9756 90.5693 45.9756 91.1612C45.9756 91.7564 46.3328 92.2905 46.8804 92.5218C47.4315 92.7497 48.0608 92.6238 48.4825 92.2054C49.0607 91.6306 49.0607 90.6951 48.4825 90.1169ZM63.9589 46.2208C62.1357 44.401 59.3975 43.8568 57.0198 44.8432C54.6421 45.8262 53.0911 48.1495 53.0911 50.7244C53.0911 53.2959 54.6421 55.6191 57.0198 56.6022C59.3975 57.5886 62.1357 57.0444 63.9589 55.2246C66.4386 52.7381 66.4386 48.7108 63.9589 46.2208ZM41.8323 74.8617H77.079C76.7796 70.7901 74.953 66.9804 71.9699 64.1946C68.565 61.0414 64.0954 59.2897 59.4559 59.2897C54.8164 59.2897 50.3467 61.0414 46.9419 64.1946C43.9588 66.9804 42.1317 70.7901 41.8323 74.8617ZM72.5169 93.3048C72.0952 92.883 71.4625 92.7572 70.9149 92.9851C70.3638 93.213 70.0033 93.7504 70.0033 94.3457C70.0033 94.941 70.3638 95.4784 70.9149 95.7063C71.4625 95.9342 72.0952 95.8083 72.5169 95.3866C73.0918 94.8117 73.0918 93.8796 72.5169 93.3048Z" fill="#6427FF"/>
</svg>
