<svg width="120" height="120" viewBox="0 0 120 120" fill="none" xmlns="http://www.w3.org/2000/svg">
<rect width="120" height="120" rx="60" fill="#F2EDFE"/>
<path d="M27 81.175C27 87.1438 31.8558 91.9997 37.8247 91.9997H80.1753C86.1442 91.9997 91 87.1438 91 81.175V50.5879H27V81.175ZM48.2905 67.0873L54.5243 66.1816L57.312 60.5329C58.0014 59.1365 59.9984 59.1358 60.688 60.5329L63.4757 66.1816L69.7095 67.0873C71.2505 67.3111 71.8683 69.2106 70.7527 70.298L66.242 74.6949L67.3068 80.9034C67.5709 82.4433 65.9475 83.6088 64.5757 82.8878L59 79.9565L53.4243 82.8877C52.0465 83.6119 50.4299 82.4393 50.6932 80.9033L51.758 74.6948L47.2473 70.2979C46.1325 69.2113 46.7488 67.3111 48.2905 67.0873Z" fill="#6427FF"/>
<path d="M91 42.5893C91 36.6205 86.1442 31.7646 80.1753 31.7646H77.8235V36.7843C77.8235 37.8238 76.9807 38.6666 75.9412 38.6666C74.9016 38.6666 74.0588 37.8238 74.0588 36.7843V31.7646H43.9412V36.7843C43.9412 37.8238 43.0984 38.6666 42.0588 38.6666C41.0193 38.6666 40.1765 37.8238 40.1765 36.7843V31.7646H37.8247C31.8558 31.7646 27 36.6205 27 42.5893V46.8235H91V42.5893Z" fill="#6427FF"/>
<path d="M55.6359 74.3559L55.0485 77.7805L58.124 76.1636C58.6725 75.8753 59.3275 75.8753 59.876 76.1636L62.9515 77.7805L62.3641 74.3559C62.2593 73.7453 62.4617 73.1222 62.9054 72.6898L65.3935 70.2644L61.955 69.7648C61.3418 69.6757 60.812 69.2907 60.5377 68.7352L59 65.6191L57.4623 68.7349C57.188 69.2905 56.6581 69.6755 56.045 69.7646L52.6064 70.2642L55.0945 72.6895C55.5383 73.1222 55.7407 73.7451 55.6359 74.3559Z" fill="#6427FF"/>
<path d="M43.9415 29.8824C43.9415 28.8428 43.0987 28 42.0591 28C41.0195 28 40.1768 28.8428 40.1768 29.8824V31.7647H43.9415V29.8824Z" fill="#6427FF"/>
<path d="M77.8235 29.8824C77.8235 28.8428 76.9808 28 75.9412 28C74.9016 28 74.0588 28.8428 74.0588 29.8824V31.7647H77.8235V29.8824Z" fill="#6427FF"/>
</svg>
