<svg width="120" height="120" viewBox="0 0 120 120" fill="none" xmlns="http://www.w3.org/2000/svg">
<rect width="120" height="120" rx="60" fill="#F2EDFE"/>
<path d="M49.9782 65.0531C50.2593 64.838 50.6787 64.6932 51.1491 64.6932H72.6531C75.7812 64.6932 78.5817 65.6645 80.582 67.1954C82.5816 68.7257 83.7464 70.7794 83.7464 72.9827V74.8113C83.7464 74.985 83.6575 75.2153 83.3813 75.4266C83.1003 75.6417 82.6809 75.7865 82.2104 75.7865H51.1491C50.6787 75.7865 50.2593 75.6417 49.9782 75.4266C49.7021 75.2153 49.6131 74.985 49.6131 74.8113V65.6684C49.6131 65.4947 49.7021 65.2644 49.9782 65.0531Z" fill="#6427FF" stroke="#6427FF" stroke-width="1.70667"/>
<path d="M49.9782 38.1732C50.2593 37.9581 50.6787 37.8133 51.1491 37.8133H72.6531C75.7812 37.8133 78.5817 38.7846 80.582 40.3155C82.5816 41.8458 83.7464 43.8995 83.7464 46.1028V47.9314C83.7464 48.1051 83.6575 48.3354 83.3813 48.5467C83.1003 48.7618 82.6809 48.9066 82.2104 48.9066H51.1491C50.6787 48.9066 50.2593 48.7618 49.9782 48.5467C49.7021 48.3354 49.6131 48.1051 49.6131 47.9314V38.7885C49.6131 38.6148 49.7021 38.3845 49.9782 38.1732Z" fill="#6427FF" stroke="#6427FF" stroke-width="1.70667"/>
<path d="M39.3738 67.9358C39.3738 66.145 40.8256 64.6932 42.6165 64.6932C44.4074 64.6932 45.8592 66.145 45.8592 67.9358C45.8592 69.7267 44.4074 71.1785 42.6165 71.1785C40.8256 71.1785 39.3738 69.7267 39.3738 67.9358Z" fill="#6427FF" stroke="#6427FF" stroke-width="1.70667"/>
<path d="M39.3738 41.056C39.3738 39.2651 40.8256 37.8133 42.6165 37.8133C44.4074 37.8133 45.8592 39.2651 45.8592 41.056C45.8592 42.8468 44.4074 44.2986 42.6165 44.2986C40.8256 44.2986 39.3738 42.8468 39.3738 41.056Z" fill="#6427FF" stroke="#6427FF" stroke-width="1.70667"/>
<path d="M27.64 31.84C27.64 30.0727 29.0727 28.64 30.84 28.64C32.6073 28.64 34.04 30.0727 34.04 31.84V90.72C34.04 91.0735 33.7535 91.36 33.4 91.36H28.28C27.9265 91.36 27.64 91.0735 27.64 90.72V31.84Z" fill="#6427FF" stroke="#6427FF" stroke-width="1.28"/>
<path d="M85.2396 31.84C85.2396 30.0727 86.6723 28.64 88.4396 28.64C90.2069 28.64 91.6396 30.0727 91.6396 31.84V90.72C91.6396 91.0735 91.3531 91.36 90.9996 91.36H85.8796C85.5261 91.36 85.2396 91.0735 85.2396 90.72V31.84Z" fill="#6427FF" stroke="#6427FF" stroke-width="1.28"/>
<rect x="35.3197" y="81.1198" width="3.84" height="48.64" transform="rotate(-90 35.3197 81.1198)" fill="#6427FF" stroke="#6427FF" stroke-width="1.28"/>
<rect x="35.3198" y="54.2399" width="3.84" height="48.64" transform="rotate(-90 35.3198 54.2399)" fill="#6427FF" stroke="#6427FF" stroke-width="1.28"/>
</svg>
